<?xml version="1.0" encoding="UTF-8"?>
<svg id="Layer_1" data-name="Layer 1" xmlns="http://www.w3.org/2000/svg" viewBox="0 0 671.79 661.89">
  <rect width="671.79" height="661.89" fill="none" stroke="#000" stroke-miterlimit="10"/>
  <g>
    <path d="M122.04.07c139.91-.14,279.82-.02,419.72-.06,13.04-.17,26.19,1.14,38.7,4.94,30.4,8.88,56.72,29.93,73.19,56.84,12.1,19.67,18.26,42.81,18.05,65.87.04,126.33,0,252.66.02,378.99-.27,13.34.76,26.75-.93,40.03-3.04,25.7-13.98,50.37-30.87,69.97-16.89,19.23-39.47,33.37-64.08,40.38-13.34,3.78-27.27,5.05-41.1,4.83-135.97,0-271.95.05-407.93-.02-35.3-1.23-69.35-18.22-92.9-44.32C12.21,594.26-.63,562.57.02,530.66.04,396.31.02,261.96.04,127.61c-.33-31.62,12.07-62.97,33.48-86.17C55.89,16.54,88.62,1.38,122.04.07ZM121.88,39.77c-26.38,1.22-51.63,15.62-66.39,37.46-11.12,16.12-16.1,35.88-16.08,55.32-.01,125.02-.01,250.04,0,375.06.08,9-.21,18,.24,26.99,1.07,20.16,8.4,40.14,21.77,55.41,11.89,13.25,27.1,23.93,44.37,28.76,10.68,3.11,21.88,3.61,32.95,3.68,132.32-.01,264.64.01,396.97-.02,15.81.14,31.87-2.38,46.11-9.54,14.82-7.38,27.64-18.74,36.68-32.62,9.24-14.97,13.91-32.46,14.73-49.96.34-11.88.06-23.76.16-35.64,0-120.02,0-240.03,0-360.05.09-10.66-1.12-21.39-4.13-31.64-8.62-29.86-33.96-54.65-64.48-61.33-11.5-2.58-23.34-1.92-35.02-2-135.96.07-271.92-.15-407.88.12Z"/>
    <g>
      <path d="M149.16,97.09c19.82-8.25,41.96-9.96,63.07-6.79,22.81,3.46,44.89,14.17,60.26,31.6,12.48,13.55,20.02,31.27,22.16,49.49-15.19.08-30.38-.07-45.57.06-3.29-12.52-10.85-24.18-21.89-31.17-13.86-9.13-31.57-11.39-47.61-7.86-15.88,3.4-30.17,13.97-37.65,28.44-9.33,17.93-10.9,39.15-7.13,58.8,3.02,15.76,10.85,31.17,24.02,40.78,11.81,9.1,27.19,12.41,41.87,11.42,12.09-.54,23.85-5.34,33.07-13.14,7.59-6.77,12.61-16.02,15.21-25.79,15.21.08,30.41-.08,45.62.1-2.98,16.14-9.52,31.74-19.79,44.61-13.27,16.02-32.09,26.99-52.14,32.11-22.77,5.62-47.28,4.75-69.34-3.39-12.95-5.05-24.96-12.71-34.77-22.58-18.21-18.75-29.08-44.09-31.26-70.05-2.12-25.68,1.08-52.69,14.3-75.24,10.55-18.69,27.63-33.49,47.57-41.4Z"/>
      <path d="M319.01,91.51c20.23.08,40.46,0,60.69.05,18.51,41.35,36.9,82.76,55.19,124.22,1.67,3.51,2.77,7.31,4.92,10.58,19.73-44.93,39.52-89.85,59.29-134.78,19.57-.12,39.14.06,58.72-.09-.05,73.01,0,146.01-.03,219.01-13.99.03-27.98.02-41.96.02.04-32.62-.02-65.23,0-97.85-.14-18.12.28-36.27-.2-54.38-2.13.62-2.56,2.98-3.5,4.68-19.07,43.2-38.05,86.43-57.36,129.52-10.19-.01-20.39-.09-30.58.05-17.5-40.16-35.56-80.08-53.23-120.16-2.31-4.74-3.95-9.83-6.93-14.21-.61,1.4-1.09,2.87-.97,4.41.01,49.33.03,98.65,0,147.97-14.69-.11-29.37-.01-44.06-.04.09-73,.08-146,.02-219Z"/>
      <path d="M106.74,346.69c28.35-.05,56.69,0,85.04-.03,14.26.28,28.74-1.08,42.77,2.21,17.51,3.99,33.91,14.04,44.36,28.81,8.98,12.32,13.24,27.76,12.88,42.93-.27,17.43-6.9,34.61-18.23,47.85-11.6,14.1-28.94,22.52-46.63,25.96-7.94,1.68-16.08,1.21-24.13,1.26-16.61,0-33.21,0-49.81,0-.07,24.87.02,49.73-.05,74.59-15.4-.15-30.81-.02-46.22-.05.09-74.51,0-149.03.02-223.54ZM152.98,387.59c0,22.66-.01,45.33,0,67.99,18.58.1,37.17-.03,55.75.08,11.18.12,22.75-4.36,29.83-13.25,6.06-7.44,8.02-17.5,6.93-26.89-.66-6.72-3.89-13.11-8.83-17.71-6.8-6.7-16.4-10.14-25.86-10.27-19.27.09-38.55.02-57.82.05Z"/>
      <path d="M319.04,346.67c14.68-.01,29.36,0,44.04-.01-.07,60.53.04,121.06-.05,181.58,66.88-.08,133.76-.02,200.64-.02-.03,14.01,0,28.02-.01,42.04-81.56-.09-163.12-.03-244.67-.04.13-74.51.02-149.03.05-223.55Z"/>
    </g>
  </g>
</svg>