<?xml version="1.0" encoding="UTF-8"?>
<svg id="Layer_1" data-name="Layer 1" xmlns="http://www.w3.org/2000/svg" viewBox="0 0 122.88 64.53">
  <path d="M84.06,16.76c.75-.2,1.62.64,1.95,1.87s-.02,2.39-.77,2.58-1.62-.64-1.95-1.87.02-2.39.77-2.58h0ZM31.41,48.4c-1-.32-1.59-1.05-1.79-1.88-.1-.42-.1-.86,0-1.29.1-.42.29-.83.57-1.18.42-.52,1.03-.93,1.81-1.07-.3-1.52-.47-2.94-.46-4.2.02-1.6.34-2.97,1.07-4.02.29-.41.58-.75.94-1.01.27-.19.57-.33.91-.4.51-2.19,1.29-4.2,2.35-6.03,1.15-1.97,2.63-3.71,4.48-5.21,1.26-1.02,2.41-1.83,3.67-2.4,1.28-.58,2.65-.91,4.33-.97.75-.02,1.53,0,2.33.07.6.05,1.21.13,1.81.22,0-.01.02-.03.03-.04.37-.58,1.23-.89,2.36-.96.96-.06,2.17.02,3.47.23,3.22.52,7.03,1.81,8.78,3.5.14-.07.28-.13.43-.19.66-.25,1.33-.39,2.01-.43.59-.03,1.18,0,1.76.09l.34-.15c-1.54-5.46-.16-9.36,2.51-11.73,1.9-1.69,4.45-2.56,7.06-2.65,2.6-.09,5.26.61,7.43,2.08,3.34,2.27,5.46,6.35,4.23,12.19-.05.26-.24.45-.46.54-.81.36-1.65.62-2.5.81-.17.04-.34.08-.51.11.54.33,1.05.67,1.49,1.07.31.27.34.74.07,1.05v.02c-2.91,3.42-6.88,4.53-11.4,5.81-.73.21-1.48.42-2.25.64-3.36,1-3.7,1.33-5.59,3.19-.13.13-.27.27-.42.41l10.8,8.98h0c.12.1.2.23.24.38.1.4-.14.8-.53.9l-10.49,2.64c-.45.14-.9.21-1.35.19-.45-.02-.9-.1-1.37-.27-1.26-.44-2.7-1.66-4.06-3.02-1.82,1.95-3.96,3.53-6.45,4.67-2.4,1.1-5.11,1.8-8.18,2.04.07,1.07-.08,2.05-.49,2.91-.1.2-.27.34-.48.39h0l-12.9,3.41s-.06.02-.09.02c-.46.1-.88.24-1.22.35-.59.19-1.02.32-1.43.22-.74-.19-.94-.72-.63-1.96.33-1.3.71-2.59,1.17-3.87-.08.05-.16.1-.24.14-1.42.82-3.1,1.27-5.01,1.45-.27.04-.54-.07-.71-.3-.24-.33-.16-.8.17-1.04.77-.55,1.38-1.23,1.8-2.03.36-.69.59-1.48.68-2.39-.01,0-.05-.02-.08-.03h0ZM33.53,43.03c3.33,1.15,6.54,1.53,9.61,1.13-.19-2.62-.75-4.67-1.65-6.17-.57-.87-1.21-1.56-1.93-2.08-1.21-.81-2.71-1.2-4.52-1.16h-.02c-.25.01-.43.07-.59.19-.2.14-.38.36-.58.65-.55.78-.79,1.88-.81,3.19-.02,1.26.17,2.7.5,4.25h0ZM44.6,43.93c1.64-.35,3.25-.92,4.82-1.72,3.19-1.63,6.24-4.2,9.13-7.68l-4.97-3.21c-1.75-.45-3.43.02-5.06,1.26-1.72,1.31-3.37,3.46-4.99,6.28.55,1.41.91,3.1,1.07,5.08h0ZM59.49,33.35l.1-.12c.74-1.04,2.08-3,3.43-5,.12-.2.25-.42.38-.62.29-.47.55-.98.81-1.47.72-1.36,1.39-2.63,2.57-3.58-1.63-1.34-4.88-2.39-7.7-2.84-1.19-.19-2.29-.27-3.14-.21-.63.04-1.06.13-1.19.26,0,.11-.02.21-.07.31-.33.7-.55,1.49-.68,2.35-.1.73-.14,1.51-.12,2.32.01.87.09,1.77.21,2.7.12.87.28,1.78.47,2.72l4.94,3.18h0ZM72.97,22.53c-1.05,3.28-2.26,6.27-3.63,8.97l-.19.46,1.14,1,.82.68c.18-.18.36-.36.53-.52,2.11-2.07,2.49-2.45,6.21-3.55.76-.22,1.52-.44,2.27-.65,4.02-1.14,7.58-2.14,10.16-4.8-.45-.32-.95-.62-1.45-.91-.35-.21-.7-.42-1.01-.61-.2-.12-.34-.33-.37-.58-.03-.41.27-.77.68-.8.83-.07,1.63-.19,2.41-.36.65-.15,1.3-.34,1.92-.59.92-4.94-.88-8.37-3.69-10.28-1.89-1.28-4.25-1.89-6.54-1.82-2.28.08-4.5.83-6.13,2.28-2.36,2.09-3.51,5.68-1.88,10.81h0c.11.36-.06.75-.41.9l-.85.37h0ZM65.1,38.15c-.53.66-1.08,1.29-1.64,1.89.2.22.42.46.64.71,1.77,1.97,4.21,4.68,5.94,5.29.32.11.63.17.93.18.29,0,.58-.03.86-.12l.09-.02,9.07-2.29-10.11-8.41c-.09-.03-.18-.08-.26-.15l-1.28-1.13-.94-.78c-.68,1.2-1.42,2.35-2.22,3.44-.35.48-.71.94-1.08,1.39h0ZM62.4,41.09c-3.3,3.04-7.8,5.17-12.39,6.52.27.71.49,1.4.64,2.06,2.92-.21,5.51-.87,7.78-1.92,2.34-1.07,4.34-2.56,6.04-4.39-.52-.56-1.01-1.11-1.47-1.61-.21-.23-.41-.46-.6-.66h0ZM48.58,48l-.2.05c-.33.08-.67.16-1,.24-1.31.32-2.63.57-3.97.76-1.83.26-3.7.41-5.6.44-.6,1.12-1.09,2.25-1.52,3.4-.48,1.3-.87,2.62-1.21,3.94h0s.17-.04.17-.04c.37-.12.81-.26,1.35-.38h.02s12.55-3.32,12.55-3.32c.24-.64.29-1.39.18-2.23-.1-.87-.37-1.83-.77-2.86h0ZM36.11,49.38c-1.2-.07-2.27-.22-3.17-.44-.13.96-.4,1.82-.81,2.59-.15.29-.32.56-.51.82.8-.21,1.54-.51,2.2-.88.9-.52,1.67-1.21,2.28-2.08h0ZM31.06,46.17c.09.36.36.69.83.83h0s.08.03.12.05c2.43,1.23,8.48,1.29,14.85-.15.65-.15,1.29-.32,1.94-.51.06-.02.13-.03.19-.03,4.77-1.33,9.48-3.51,12.76-6.7.04-.07.08-.13.14-.19.73-.72,1.42-1.48,2.07-2.27,1.28-1.6,2.45-3.4,3.53-5.39.17-.31.34-.63.5-.95l3.34-8.25c-.24-.02-.49-.02-.73,0-.52.03-1.04.13-1.56.34-.62.24-1.12.57-1.55.96-.49.92-1.19,2.05-1.98,3.25-.41.62-.85,1.27-1.28,1.92-1.11,1.82-2.26,3.49-3.43,5.01-.25.35-.43.61-.54.74-.05.06-.09.1-.15.14-3.15,3.9-6.48,6.76-10.01,8.56-1.84.94-3.73,1.59-5.67,1.95-.12.12-.29.19-.47.2-.12,0-.24-.02-.34-.07-3.36.48-6.88.09-10.53-1.16h0c-.17.04-.35.01-.49-.06-.57.02-.99.25-1.25.57-.14.18-.24.38-.28.58-.07.23-.07.44-.02.63h0ZM40.11,34.51c.7.43,1.32.97,1.87,1.63.28.34.54.71.78,1.11,1.55-2.57,3.17-4.56,4.87-5.86,1.7-1.29,3.46-1.9,5.32-1.7-.17-.91-.31-1.79-.41-2.65h0s0-.04,0-.04c-.1-.85-.15-1.67-.16-2.45,0-.77.03-1.49.13-2.19.08-.67.21-1.31.38-1.92-.47-.07-.93-.12-1.39-.16-.73-.05-1.44-.08-2.16-.06-1.47.05-2.66.34-3.77.84-1.13.51-2.18,1.26-3.35,2.2-1.7,1.38-3.07,2.99-4.13,4.8-.92,1.57-1.6,3.31-2.08,5.18,1.45.07,2.75.44,3.91,1.16.06.04.12.08.18.12h0ZM34.63,57s.04-.01.1-.03c-.13,0-.23,0-.1.03h0Z" fill="#fff" fill-rule="evenodd"/>
</svg>