<?xml version="1.0" encoding="UTF-8"?>
<svg id="Layer_1" data-name="Layer 1" xmlns="http://www.w3.org/2000/svg" viewBox="0 0 600 600">
  <rect width="600.68" height="600.68" fill="#b5d331" isolation="isolate" opacity=".8"/>
  <g>
    <path d="M144.49,305.92h-8.9l-1.57,4.08h-8.03l10.24-23.42h7.76l10.24,23.42h-8.16l-1.57-4.08h0ZM142.31,300.23l-2.28-5.89-2.28,5.89h4.55Z"/>
    <path d="M154.02,308.13l2.54-5.76c2.21,1.31,5.15,2.14,7.73,2.14,2.24,0,3.05-.47,3.05-1.27,0-2.94-12.95-.57-12.95-9.3,0-4.35,3.65-7.9,10.91-7.9,3.15,0,6.39.67,8.83,2.04l-2.38,5.72c-2.31-1.17-4.48-1.74-6.53-1.74-2.31,0-3.05.67-3.05,1.47,0,2.81,12.95.47,12.95,9.1,0,4.28-3.65,7.9-10.91,7.9-3.92,0-7.86-.97-10.21-2.41h0Z"/>
    <path d="M177.28,299.46v-12.88h7.9v12.65c0,3.58,1.37,4.92,3.58,4.92s3.58-1.34,3.58-4.92v-12.65h7.76v12.88c0,7.03-4.22,11.08-11.41,11.08s-11.41-4.05-11.41-11.08h0Z"/>
    <path d="M226.81,286.58v23.42h-6.49l-8.9-10.64v10.64h-7.7v-23.42h6.49l8.9,10.64v-10.64h7.7Z"/>
    <path d="M235.7,292.7h-6.86v-6.12h21.62v6.12h-6.86v17.3h-7.9v-17.3h0Z"/>
    <path d="M275.59,286.58v23.42h-7.9v-8.63h-7.29v8.63h-7.9v-23.42h7.9v8.3h7.29v-8.3h7.9Z"/>
    <path d="M295.37,305.92h-8.9l-1.57,4.08h-8.03l10.24-23.42h7.76l10.24,23.42h-8.16l-1.57-4.08ZM293.19,300.23l-2.28-5.89-2.28,5.89h4.55Z"/>
    <path d="M324.31,292.53v4.02h9.77v5.96h-9.77v7.5h-7.9v-23.42h19.04v5.96h-11.14Z"/>
    <path d="M337.96,286.58h7.9v17.3h10.57v6.12h-18.47v-23.42h0Z"/>
    <path d="M378.09,304.04v5.96h-19.48v-23.42h19.04v5.96h-11.28v2.74h9.9v5.69h-9.9v3.08h11.71Z"/>
    <path d="M402.05,310l-.07-10.67-5.09,8.57h-3.48l-5.09-8.2v10.31h-7.19v-23.42h6.49l7.63,12.48,7.43-12.48h6.49l.07,23.42h-7.19Z"/>
    <path d="M413.05,286.58h7.9v23.42h-7.9v-23.42h0Z"/>
    <path d="M447.86,286.58v23.42h-6.49l-8.9-10.64v10.64h-7.7v-23.42h6.49l8.9,10.64v-10.64h7.7Z"/>
    <path d="M467.16,297.65h6.86v9.9c-2.84,1.94-6.76,2.98-10.21,2.98-7.56,0-13.08-5.05-13.08-12.25s5.52-12.25,13.25-12.25c4.62,0,8.33,1.61,10.71,4.52l-5.05,4.45c-1.47-1.71-3.18-2.58-5.25-2.58-3.48,0-5.69,2.24-5.69,5.86s2.21,5.86,5.59,5.86c.97,0,1.91-.17,2.88-.57v-5.92h0Z"/>
  </g>
</svg>