<?xml version="1.0" encoding="UTF-8"?>
<svg id="Layer_1" data-name="Layer 1" xmlns="http://www.w3.org/2000/svg" viewBox="0 0 600 600">
  <rect width="600" height="600" fill="#7852a9" isolation="isolate" opacity=".8"/>
  <g>
    <path d="M167.16,268.52c7.38-4.38,16.32-5.76,24.72-4.56,4.56.72,9.12,2.04,13.08,4.5.42,1.68.3,3.54.42,5.34.18,2.52.36,5.1.42,7.62-8.4-8.1-22.2-10.08-32.4-4.26-5.88,3.36-10.02,9.42-11.16,16.08-.96,5.64-.24,11.76,2.64,16.8,3,5.58,8.34,9.72,14.46,11.28,9.36,2.28,19.8.36,27.3-5.76-.3,3.66-.72,7.32-1.08,10.92-.12.54,0,1.32-.66,1.56-6.42,3.3-13.68,4.86-20.88,4.44-6.9-.24-13.8-2.52-19.38-6.6-6.42-4.62-11.1-11.58-13.08-19.26-1.92-7.44-1.38-15.6,1.86-22.62,2.82-6.36,7.62-11.94,13.68-15.42h0l.06-.06Z" fill="#fff"/>
    <path d="M312.96,265.1h26.58c5.76,0,12,1.44,16.32,5.58,4.08,3.96,5.22,10.08,4.2,15.54-.78,4.5-3.66,8.58-7.68,10.74,3.06,1.44,5.94,3.48,7.68,6.48,2.28,3.9,2.52,8.64,1.98,13.08-.54,4.8-3.36,9.36-7.56,11.76-3.72,2.34-8.16,3.18-12.54,3.24-9.6,0-19.26-.06-28.86-.12-.12-21.48-.12-43.02-.18-64.5,0-.54-.18-1.2.12-1.74h0l-.06-.06ZM324.12,274.64v18.24h15.84c3.72-.06,7.62-2.22,8.88-5.94,1.02-3.24.66-7.2-1.86-9.66-1.98-1.92-4.86-2.4-7.44-2.52-5.1,0-10.26,0-15.42-.06h0v-.06ZM324.18,302.42c.18,6.42.12,12.84.18,19.26,5.58-.06,11.16,0,16.74-.06,2.4,0,4.92-.66,6.84-2.16,3.6-2.7,4.2-8.16,2.28-12.06-1.74-3.24-5.52-4.98-9.12-4.92-5.64-.06-11.28,0-16.92,0h0v-.06Z" fill="#fff"/>
    <path d="M425.58,270.92h11.28v11.76h12.6c-.24,3-.12,6.06-.42,9.12l-.18.12h-12v24.9c0,2.28,1.2,4.74,3.42,5.58,2.82,1.02,5.94.3,8.7-.66-.24,3.24-.06,6.54,0,9.78-3.96.78-8.1,1.2-12.12.54s-7.74-3.18-9.54-6.84c-1.74-3.3-1.86-7.08-1.74-10.74v-22.56h-6.54c0-3.06-.06-6.18-.18-9.24h6.72v-11.82h0v.06Z" fill="#fff"/>
    <path d="M218.34,286.34c4.02-2.64,8.64-4.2,13.44-4.74,6.66-.48,14.1,0,19.32,4.62,3.78,3.18,5.28,8.22,5.34,13.02.18,10.68,0,21.36.12,31.98h-11.4c0-1.38,0-2.76.06-4.14-2.46,2.16-5.34,3.9-8.52,4.68-4.56,1.14-9.42,1.02-13.92-.24-3.66-.96-7.02-3.24-8.94-6.54-2.34-4.2-2.52-9.66-.24-13.92,1.62-3.12,4.56-5.28,7.68-6.66,3.48-1.62,7.38-2.1,11.22-2.16h12.66c-.18-2.64-.06-5.52-1.62-7.8-1.86-2.88-5.46-4.2-8.76-4.26-6.24-.12-12.12,2.82-16.86,6.66.3-3.48.12-7.02.36-10.56h0l.06.06ZM226.02,311.84c-2.76,2.28-3.06,6.84-.72,9.48,1.14,1.32,2.88,2.1,4.56,2.4,3.06.42,6.24.3,9.06-1.02s4.98-3.84,6-6.78c.48-2.16.24-4.38.36-6.54h-12c-2.58.12-5.28.72-7.32,2.4h0l.06.06Z" fill="#fff"/>
    <path d="M387.48,281.9c6.42-1.02,13.26-.12,18.78,3.42,4.5,2.76,7.8,7.26,9.6,12.18,2.22,6.24,2.1,13.26-.24,19.38-2.1,5.52-6.18,10.26-11.46,12.9-4.74,2.4-10.26,3.24-15.48,2.58-6.06-.6-11.82-3.66-15.66-8.34-7.92-9.48-7.92-24.72.18-34.14,3.54-4.32,8.82-7.14,14.34-8.04h0l-.06.06ZM390.12,291.5c-5.22.54-9.72,4.44-11.16,9.48-1.32,4.08-1.14,8.58.3,12.6,1.14,3.24,3.48,6.18,6.66,7.74,4.38,2.1,9.9,1.92,13.98-.78,5.04-3.36,6.96-9.9,6.42-15.66-.3-3.96-1.98-7.92-5.1-10.5-3-2.52-7.2-3.48-11.04-2.82h0l-.06-.06Z" fill="#b9c85a"/>
    <path d="M257.52,282.68c4.08,0,8.1.06,12.12.12,4.26,11.22,8.46,22.5,12.78,33.72.36.78.48,1.68,1.02,2.34,4.32-12.06,8.64-24.12,13.14-36.06,4.02-.18,8.04-.06,12.12-.12-6.42,15.9-12.78,31.86-19.08,47.88-.12.18-.36.6-.48.78-4.02,0-8.04,0-12.06-.12-6.6-16.14-13.08-32.34-19.62-48.54h.06Z" fill="#fff"/>
  </g>
</svg>